<svg width="35" height="36" viewBox="0 0 35 36" fill="none" xmlns="http://www.w3.org/2000/svg">
<g clip-path="url(#clip0_362_77)">
<path fill-rule="evenodd" clip-rule="evenodd" d="M17.5008 2.78271C21.5355 2.78714 25.4037 4.39189 28.2567 7.24487C31.1096 10.0978 32.7144 13.966 32.7188 18.0008C32.7261 20.4493 32.1358 22.8627 30.9992 25.0315C30.1666 26.6188 29.0653 28.0445 27.7482 29.2473C27.7245 28.1122 27.4895 26.9909 27.0547 25.9408C26.5953 24.8314 25.9219 23.8233 25.0729 22.9741C24.2238 22.1249 23.2158 21.4513 22.1065 20.9918C20.9971 20.5322 19.808 20.2957 18.6072 20.2957H16.393C15.1922 20.2957 14.0032 20.5322 12.8938 20.9918C11.7844 21.4513 10.7764 22.1249 9.92739 22.9741C9.07836 23.8233 8.40492 24.8314 7.94553 25.9408C7.5108 26.9907 7.27582 28.1119 7.25201 29.2469C5.93472 28.0444 4.83331 26.6188 4.00083 25.0315C2.86471 22.8626 2.27495 20.4492 2.28272 18.0008C2.28715 13.966 3.8919 10.0978 6.74487 7.24487C9.59785 4.39189 13.4661 2.78714 17.5008 2.78271ZM17.5008 0.5C14.0394 0.5 10.6559 1.5264 7.77787 3.44941C4.89988 5.37242 2.65676 8.10566 1.33217 11.3035C0.00758278 14.5014 -0.338991 18.0202 0.33628 21.415C1.01155 24.8098 2.67834 27.9281 5.12586 30.3757C7.57339 32.8232 10.6917 34.49 14.0865 35.1652C17.4814 35.8405 21.0002 35.4939 24.198 34.1694C27.3959 32.8448 30.1291 30.6016 32.0521 27.7237C33.9751 24.8457 35.0015 21.4621 35.0015 18.0008C35.0015 13.3593 33.1577 8.90788 29.8757 5.62585C26.5936 2.34382 22.1423 0.5 17.5008 0.5ZM18.6072 22.5784C20.4262 22.5808 22.17 23.3045 23.4561 24.5909C24.7421 25.8773 25.4655 27.6212 25.4675 29.4402V30.962C23.0702 32.4327 20.3126 33.2112 17.5001 33.2112C14.6876 33.2112 11.93 32.4327 9.53271 30.962V29.4402C9.53472 27.6212 10.2581 25.8773 11.5442 24.5909C12.8303 23.3045 14.574 22.5808 16.393 22.5784H18.6072ZM19.0921 12.1391C18.6211 11.8244 18.0673 11.6564 17.5008 11.6564C16.7416 11.6568 16.0136 11.9584 15.4766 12.4951C14.9396 13.0318 14.6376 13.7597 14.6368 14.5189C14.6365 15.0854 14.8042 15.6393 15.1187 16.1105C15.4332 16.5817 15.8804 16.949 16.4037 17.166C16.927 17.383 17.503 17.4399 18.0586 17.3296C18.6143 17.2193 19.1248 16.9466 19.5254 16.5461C19.9261 16.1456 20.1991 15.6353 20.3097 15.0797C20.4203 14.5241 20.3637 13.9482 20.147 13.4247C19.9303 12.9013 19.5632 12.4539 19.0921 12.1391ZM14.6409 10.2404C15.4875 9.67499 16.4827 9.37336 17.5008 9.37366C18.8653 9.37406 20.1738 9.91627 21.1386 10.8811C22.1034 11.8459 22.6456 13.1544 22.646 14.5189C22.6463 15.5369 22.3447 16.5322 21.7793 17.3788C21.2139 18.2254 20.4101 18.8853 19.4696 19.2751C18.5291 19.6648 17.4941 19.7669 16.4956 19.5683C15.4971 19.3698 14.5799 18.8796 13.86 18.1597C13.1401 17.4398 12.6499 16.5226 12.4514 15.5241C12.2528 14.5256 12.3549 13.4906 12.7446 12.5501C13.1343 11.6096 13.7942 10.8058 14.6409 10.2404Z" fill="white"/>
</g>
<defs>
<clipPath id="clip0_362_77">
<rect width="35" height="35" fill="white" transform="translate(0 0.5)"/>
</clipPath>
</defs>
</svg>
