<svg width="30" height="30" viewBox="0 0 30 30" fill="none" xmlns="http://www.w3.org/2000/svg">
<path fill-rule="evenodd" clip-rule="evenodd" d="M3.5 14.4996C3.5 10.1354 4.23724 7.46434 5.85079 5.85079C7.46434 4.23724 10.1354 3.5 14.4996 3.5C18.8638 3.5 21.5349 4.23724 23.1484 5.85079C24.762 7.46434 25.4992 10.1354 25.4992 14.4996C25.4992 18.8638 24.762 21.5349 23.1484 23.1484C21.5349 24.762 18.8638 25.4992 14.4996 25.4992C10.1354 25.4992 7.46434 24.762 5.85079 23.1484C4.23724 21.5349 3.5 18.8638 3.5 14.4996ZM14.4996 2C10.0522 2 6.84849 2.73178 4.79013 4.79013C2.73178 6.84849 2 10.0522 2 14.4996C2 18.947 2.73178 22.1507 4.79013 24.2091C6.84849 26.2674 10.0522 26.9992 14.4996 26.9992C18.947 26.9992 22.1507 26.2674 24.2091 24.2091C26.2674 22.1507 26.9992 18.947 26.9992 14.4996C26.9992 10.0522 26.2674 6.84849 24.2091 4.79013C22.1507 2.73178 18.947 2 14.4996 2ZM14.4995 9.43654C14.9137 9.43654 15.2495 9.77233 15.2495 10.1865V13.7496H18.8171C19.2313 13.7496 19.5671 14.0854 19.5671 14.4996C19.5671 14.9138 19.2313 15.2496 18.8171 15.2496H15.2495V18.8127C15.2495 19.2269 14.9137 19.5627 14.4995 19.5627C14.0853 19.5627 13.7495 19.2269 13.7495 18.8127V15.2496H10.1821C9.76792 15.2496 9.43213 14.9138 9.43213 14.4996C9.43213 14.0854 9.76792 13.7496 10.1821 13.7496H13.7495V10.1865C13.7495 9.77233 14.0853 9.43654 14.4995 9.43654Z" fill="#B0B0B0"/>
</svg>
