<svg width="43" height="43" viewBox="0 0 43 43" fill="none" xmlns="http://www.w3.org/2000/svg">
<rect x="0.5" y="0.5" width="42" height="42" rx="21" stroke="white"/>
<path fill-rule="evenodd" clip-rule="evenodd" d="M22 11.5C22 11.2239 21.7761 11 21.5 11C21.2239 11 21 11.2239 21 11.5V21H11.5C11.2239 21 11 21.2239 11 21.5C11 21.7761 11.2239 22 11.5 22H21V31.5C21 31.7761 21.2239 32 21.5 32C21.7761 32 22 31.7761 22 31.5V22H31.5C31.7761 22 32 21.7761 32 21.5C32 21.2239 31.7761 21 31.5 21H22V11.5Z" fill="white"/>
</svg>
