<svg width="25" height="25" viewBox="0 0 25 25" fill="none" xmlns="http://www.w3.org/2000/svg">
<g clip-path="url(#clip0_57_1263)">
<path fill-rule="evenodd" clip-rule="evenodd" d="M0.013704 12.4794C-0.0620615 11.8905 0.179773 11.2848 0.723855 10.8736L7.90737 5.44358C8.79156 4.77523 10.1392 4.87326 10.9173 5.66255C11.6955 6.45184 11.6095 7.63349 10.7253 8.30185L7.35483 10.8496L23.1028 10.79C24.1455 10.786 24.995 11.6281 25.0001 12.6708C25.0052 13.7135 24.1641 14.562 23.1214 14.5659L7.96664 14.6233L10.6252 16.7209C11.4978 17.4093 11.559 18.5954 10.7619 19.3701C9.96476 20.1447 8.61117 20.2145 7.73855 19.526L0.706008 13.9774C0.207399 13.584 -0.0262857 13.0282 0.013704 12.4794Z" fill="white"/>
</g>
<defs>
<clipPath id="clip0_57_1263">
<rect width="25" height="25" fill="white"/>
</clipPath>
</defs>
</svg>
