<svg width="30" height="30" viewBox="0 0 30 30" fill="none" xmlns="http://www.w3.org/2000/svg">
<g id="icons">
<path id="eye" fill-rule="evenodd" clip-rule="evenodd" d="M5.8494 5L4.26527 6.41284L7.61206 9.3988C5.69605 10.8997 4.13857 12.8551 3 14.899C5.42504 18.9422 9.27205 22.3849 13.9769 22.9526C16.5859 23.2674 18.9939 22.6304 21.0945 21.4277L24.6502 24.6L26.2343 23.1867L5.8494 5ZM5.33143 14.8625C6.17129 13.5122 7.47095 11.9689 9.10307 10.7291L11.6712 13.0203C11.3393 13.5487 11.1495 14.1579 11.1495 14.8063C11.1495 16.8257 12.9868 18.4648 15.2502 18.4648C15.9769 18.4648 16.66 18.2961 17.2522 17.9996L19.5854 20.0813C18.5077 20.633 17.3282 21.0186 16.0638 21.1536C11.3794 21.6538 7.66798 18.3563 5.32887 14.867L5.33143 14.8625ZM16.0251 16.9048L12.8982 14.115C12.818 14.3325 12.774 14.5651 12.774 14.8063C12.774 16.0257 13.8835 17.0155 15.2502 17.0155C15.5206 17.0155 15.7813 16.9768 16.0251 16.9048ZM11.0035 7.42727C12.3191 6.9043 13.7426 6.59672 15.2628 6.57482C15.3472 6.57436 16.3492 6.6168 16.8034 6.68343C17.0883 6.72541 17.3722 6.77789 17.652 6.84315C22.1149 7.88042 25.4212 11.2464 27.5 14.7142C26.6279 16.2854 25.4857 17.8187 24.1235 19.1325L22.6775 17.8424C23.6836 16.875 24.5225 15.798 25.1685 14.7534C25.1685 14.7534 24.5189 13.8216 24.0264 13.2365C23.7097 12.8605 23.3767 12.4954 23.0269 12.1436C22.7507 11.8661 21.678 10.9238 21.4228 10.7275C19.7103 9.41373 17.6996 8.38285 15.2878 8.40019C14.3538 8.41343 13.4556 8.57771 12.603 8.85426L11.0035 7.42727ZM15.2502 11.1478C15.2252 11.1478 15.1996 11.1483 15.1745 11.1487L19.3504 14.8739C19.3509 14.8515 19.3509 14.8291 19.3509 14.8063C19.3509 12.7875 17.5136 11.1478 15.2502 11.1478Z" fill="#B7B5B5"/>
</g>
</svg>
