<svg width="30" height="30" viewBox="0 0 30 30" fill="none" xmlns="http://www.w3.org/2000/svg">
<path fill-rule="evenodd" clip-rule="evenodd" d="M13.1949 4.15083C14.9151 1.77929 18.1872 1.28845 20.4949 3.07929L20.4951 3.07945C22.786 4.85856 23.2385 8.20536 21.5293 10.5617L21.0203 10.1925C21.5293 10.5617 21.5293 10.5617 21.5292 10.5618L21.529 10.5621L21.528 10.5635L21.5239 10.569L21.5081 10.5909L21.4459 10.6767L21.2076 11.0052L20.338 12.204L19.7131 13.0654C19.6887 13.1212 19.657 13.1749 19.6179 13.2252C19.5894 13.2619 19.5581 13.2953 19.5246 13.3252L17.5287 16.0766C15.3717 19.0501 12.9008 22.4561 11.6454 24.186C10.2203 26.1519 8.16658 26.7931 6.54304 26.9555C5.7289 27.0369 5.00346 27.0009 4.48174 26.9451C4.21999 26.9171 4.00711 26.8838 3.85708 26.8569C3.782 26.8434 3.72246 26.8316 3.68021 26.8227C3.65907 26.8183 3.64224 26.8146 3.62994 26.8118L3.61488 26.8084L3.60994 26.8072L3.60813 26.8068L3.60739 26.8066C3.60706 26.8066 3.60676 26.8065 3.78037 26.0769C3.12419 26.4401 3.12404 26.4398 3.12389 26.4395L3.12352 26.4389L3.12263 26.4373L3.1202 26.4328L3.11282 26.4192C3.1068 26.408 3.09864 26.3926 3.08855 26.3732C3.06838 26.3344 3.0405 26.2795 3.00675 26.2097C2.93929 26.0703 2.84808 25.871 2.748 25.622C2.54845 25.1255 2.3103 24.4235 2.15719 23.6C1.85226 21.96 1.87298 19.7585 3.31078 17.7755L3.31087 17.7753C4.58372 16.0206 7.05473 12.6144 9.20752 9.64698L12.0085 5.78609L12.8746 4.59227L13.1119 4.26524L13.1738 4.17991L13.1896 4.15813L13.1936 4.15263L13.1946 4.15125L13.1948 4.1509C13.1948 4.15087 13.1949 4.15085 13.2342 4.17935L13.1949 4.15083ZM3.78037 26.0769L3.60676 26.8065C3.40153 26.7577 3.22636 26.6246 3.12419 26.4401L3.78037 26.0769ZM18.86 11.6869L19.1238 11.3232L19.9934 10.1244L20.2317 9.79591L20.2939 9.71017L20.3098 9.68829L20.3138 9.68276L20.3148 9.68137L20.315 9.68102C20.3151 9.68095 20.3151 9.68091 20.8231 10.0494L20.3151 9.68091C21.557 7.96886 21.2162 5.53884 19.5753 4.26432L15.8812 9.37332L18.86 11.6869ZM15.0018 10.5896L17.9787 12.9017L16.3146 15.1958C14.1574 18.1695 11.6864 21.5756 10.4312 23.3053L10.431 23.3056C9.34707 24.8007 7.77184 25.3251 6.39373 25.4629C5.70705 25.5316 5.08848 25.5015 4.6414 25.4536C4.50568 25.4391 4.38665 25.423 4.28734 25.4078L15.0018 10.5896ZM15.0016 10.5895L4.28734 25.4078C4.2439 25.3123 4.19358 25.1964 4.13977 25.0626C3.96737 24.6337 3.76261 24.0287 3.63191 23.3258C3.36923 21.913 3.41731 20.184 4.52507 18.6561C5.79788 16.9013 8.26887 13.4952 10.4217 10.5278L12.0436 8.29208L15.0016 10.5895ZM15.881 9.3732L19.5751 4.26415C17.9479 3.00161 15.6399 3.33479 14.4091 5.03159L14.409 5.03163L13.802 4.59121C14.409 5.03163 14.409 5.03167 14.409 5.03175L14.4087 5.03209L14.4077 5.03347L14.4037 5.03898L14.3879 5.06075L14.326 5.14608L14.0887 5.47311L13.2226 6.66693L12.9249 7.07729L15.881 9.3732ZM15.3003 25.8601C15.3003 25.4459 15.6361 25.1101 16.0503 25.1101H25.3853C25.7996 25.1101 26.1353 25.4459 26.1353 25.8601C26.1353 26.2743 25.7996 26.6101 25.3853 26.6101H16.0503C15.6361 26.6101 15.3003 26.2743 15.3003 25.8601Z" fill="white"/>
</svg>
