<svg width="30" height="30" viewBox="0 0 30 30" fill="none" xmlns="http://www.w3.org/2000/svg">
<path fill-rule="evenodd" clip-rule="evenodd" d="M13.1949 4.15132C14.9151 1.77978 18.1872 1.28893 20.4949 3.07978L20.4951 3.07994C22.786 4.85905 23.2385 8.20585 21.5293 10.5621L21.0203 10.1929C21.5293 10.5622 21.5293 10.5622 21.5292 10.5623L21.529 10.5626L21.528 10.564L21.5239 10.5695L21.5081 10.5914L21.4459 10.6772L21.2076 11.0057L20.338 12.2045L19.7131 13.0659C19.6887 13.1217 19.657 13.1754 19.6179 13.2257C19.5894 13.2624 19.5581 13.2958 19.5246 13.3257L17.5287 16.0771C15.3717 19.0506 12.9008 22.4566 11.6454 24.1865C10.2203 26.1523 8.16658 26.7935 6.54304 26.956C5.7289 27.0374 5.00346 27.0014 4.48174 26.9456C4.21999 26.9175 4.00711 26.8843 3.85708 26.8574C3.782 26.8439 3.72246 26.8321 3.68021 26.8232C3.65907 26.8187 3.64224 26.8151 3.62994 26.8123L3.61488 26.8089L3.60994 26.8077L3.60813 26.8073L3.60739 26.8071C3.60706 26.807 3.60676 26.807 3.78037 26.0773C3.12419 26.4406 3.12404 26.4403 3.12389 26.44L3.12352 26.4394L3.12263 26.4377L3.1202 26.4333L3.11282 26.4196C3.1068 26.4085 3.09864 26.3931 3.08855 26.3737C3.06838 26.3349 3.0405 26.28 3.00675 26.2102C2.93929 26.0708 2.84808 25.8715 2.748 25.6225C2.54845 25.126 2.3103 24.424 2.15719 23.6005C1.85226 21.9605 1.87298 19.759 3.31078 17.7759L3.31087 17.7758C4.58372 16.021 7.05473 12.6149 9.20752 9.64747L12.0085 5.78658L12.8746 4.59276L13.1119 4.26573L13.1738 4.1804L13.1896 4.15862L13.1936 4.15312L13.1946 4.15174L13.1948 4.15139C13.1948 4.15136 13.1949 4.15134 13.2342 4.17984L13.1949 4.15132ZM3.78037 26.0773L3.60676 26.807C3.40153 26.7581 3.22636 26.6251 3.12419 26.4406L3.78037 26.0773ZM18.86 11.6874L19.1238 11.3237L19.9934 10.1249L20.2317 9.79639L20.2939 9.71066L20.3098 9.68877L20.3138 9.68325L20.3148 9.68186L20.315 9.68151C20.3151 9.68144 20.3151 9.6814 20.8231 10.0499L20.3151 9.68139C21.557 7.96935 21.2162 5.53933 19.5753 4.26481L15.8812 9.37381L18.86 11.6874ZM15.0018 10.5901L17.9787 12.9022L16.3146 15.1963C14.1574 18.17 11.6864 21.5761 10.4312 23.3058L10.431 23.3061C9.34707 24.8012 7.77184 25.3255 6.39373 25.4634C5.70705 25.5321 5.08848 25.5019 4.6414 25.4541C4.50568 25.4396 4.38665 25.4235 4.28734 25.4083L15.0018 10.5901ZM15.0016 10.5899L4.28734 25.4083C4.2439 25.3128 4.19358 25.1969 4.13977 25.0631C3.96737 24.6341 3.76261 24.0292 3.63191 23.3263C3.36923 21.9135 3.41731 20.1845 4.52507 18.6566C5.79788 16.9018 8.26887 13.4957 10.4217 10.5283L12.0436 8.29257L15.0016 10.5899ZM15.881 9.37369L19.5751 4.26464C17.9479 3.00209 15.6399 3.33528 14.4091 5.03207L14.409 5.03212L13.802 4.5917C14.409 5.03212 14.409 5.03216 14.409 5.03223L14.4087 5.03258L14.4077 5.03396L14.4037 5.03946L14.3879 5.06124L14.326 5.14657L14.0887 5.4736L13.2226 6.66742L12.9249 7.07778L15.881 9.37369ZM15.3003 25.8606C15.3003 25.4463 15.6361 25.1106 16.0503 25.1106H25.3853C25.7996 25.1106 26.1353 25.4463 26.1353 25.8606C26.1353 26.2748 25.7996 26.6106 25.3853 26.6106H16.0503C15.6361 26.6106 15.3003 26.2748 15.3003 25.8606Z" fill="#B0B0B0"/>
</svg>
