<svg width="30" height="30" viewBox="0 0 30 30" fill="none" xmlns="http://www.w3.org/2000/svg">
<g id="icons">
<path id="eye" fill-rule="evenodd" clip-rule="evenodd" d="M27 15.075C24.8229 11.3719 20.4761 7.06801 15.1779 7.0001C11.6519 6.98471 8.67706 8.68416 6.35864 10.8915C6.06652 11.1699 5.78392 11.4565 5.51134 11.7503C5.15558 12.1337 4.81586 12.529 4.49217 12.935C3.76964 13.8404 3 15.2583 3 15.2583C5.16761 18.9392 8.77377 22.3617 13.1947 23.1629C17.1741 23.8841 20.9426 22.0267 23.5667 19.5368C23.8603 19.2584 24.1434 18.9718 24.4175 18.6776C24.8018 18.2642 25.1676 17.8369 25.5153 17.3982C26.2339 16.4915 27 15.075 27 15.075ZM7.81223 12.1383C9.75385 10.2899 12.2081 8.80095 15.1593 8.81091C19.3442 8.86977 22.7374 12.1107 24.7207 15.1098C24.4811 15.5064 24.179 15.9736 23.8854 16.3443C23.5682 16.745 23.2345 17.1348 22.8838 17.5119C22.6362 17.7776 22.3802 18.037 22.1151 18.2882C19.9465 20.3458 16.8775 21.9837 13.589 21.3874C10.06 20.7478 7.19141 18.1271 5.28035 15.2257C5.52036 14.8296 5.823 14.3633 6.11813 13.9939C6.41325 13.624 6.72291 13.2632 7.0471 12.9138C7.29362 12.6485 7.54816 12.3895 7.81223 12.1383ZM19.0177 15.1664C19.0177 13.1637 17.2174 11.5371 15.0002 11.5371C12.7835 11.5371 10.9831 13.1637 10.9831 15.1664C10.9831 17.1696 12.7835 18.7957 15.0002 18.7957C17.2174 18.7957 19.0177 17.1696 19.0177 15.1664ZM17.0089 15.1664C17.0089 14.165 16.109 13.352 15.0002 13.352C13.8918 13.352 12.9919 14.165 12.9919 15.1664C12.9919 16.1683 13.8918 16.9813 15.0002 16.9813C16.109 16.9813 17.0089 16.1683 17.0089 15.1664Z" fill="white"/>
</g>
</svg>
