<svg width="29" height="30" viewBox="0 0 29 30" fill="none" xmlns="http://www.w3.org/2000/svg">
<g id="google">
<path id="Vector" d="M1.51904 8.66948C2.42725 6.7769 3.71045 5.17729 5.32764 3.84721C7.51904 2.03666 10.0327 0.94682 12.8511 0.612836C16.1616 0.220258 19.2729 0.847211 22.1499 2.56987C22.8647 2.9976 23.5327 3.48393 24.1714 4.01127C24.3296 4.14018 24.312 4.21635 24.1772 4.34526C22.8706 5.64604 21.564 6.94682 20.269 8.25932C20.1167 8.41166 20.0347 8.39995 19.8706 8.2769C16.0737 5.35307 10.5366 6.14409 7.70654 10.0113C7.2085 10.691 6.8042 11.4234 6.52295 12.2203C6.49951 12.2906 6.45264 12.355 6.41748 12.4253C5.66162 11.8511 4.8999 11.2769 4.1499 10.6968C3.271 10.023 2.39209 9.34916 1.51904 8.66948Z" fill="#E94335"/>
<path id="Vector_2" d="M6.41748 17.9214C6.66943 18.478 6.88037 19.0581 7.19678 19.5796C8.52686 21.7593 10.4253 23.1597 12.9272 23.6577C15.1831 24.1089 17.3511 23.8042 19.3726 22.6733C19.4429 22.6382 19.5132 22.603 19.5776 22.5679C19.6128 22.603 19.6421 22.644 19.6772 22.6733C21.189 23.8452 22.7065 25.0171 24.2183 26.189C23.4917 26.9097 22.6655 27.4897 21.7866 27.9937C19.2378 29.4468 16.478 30.0327 13.5718 29.8101C9.95068 29.5288 6.82764 28.0991 4.24951 25.521C3.11865 24.3901 2.18701 23.1128 1.51318 21.6538C2.14014 21.1733 2.76709 20.6987 3.39404 20.2183C4.40186 19.4507 5.40967 18.689 6.41748 17.9214Z" fill="#34A853"/>
<path id="Vector_3" d="M24.224 26.189C22.7123 25.0171 21.1947 23.8452 19.683 22.6733C19.6478 22.644 19.6127 22.603 19.5834 22.5679C20.1049 22.1636 20.6381 21.771 21.0658 21.2554C21.7807 20.3999 22.2553 19.4331 22.5014 18.3491C22.5307 18.2144 22.5072 18.1675 22.3725 18.1733C22.3021 18.1792 22.2377 18.1733 22.1674 18.1733C19.7768 18.1733 17.3803 18.1675 14.9896 18.1792C14.726 18.1792 14.6674 18.1089 14.6732 17.8569C14.685 16.1577 14.685 14.4585 14.6732 12.7593C14.6732 12.5425 14.7318 12.4839 14.9486 12.4839C19.3314 12.4897 23.7143 12.4897 28.1029 12.4839C28.2904 12.4839 28.3666 12.5308 28.4135 12.73C28.7709 14.3413 28.7475 15.9585 28.5307 17.5874C28.3549 18.8882 28.0385 20.1479 27.5521 21.3667C26.8314 23.1655 25.7709 24.7358 24.3764 26.0835C24.3236 26.1245 24.2709 26.1538 24.224 26.189Z" fill="#4285F3"/>
<path id="Vector_4" d="M6.41734 17.9214C5.40953 18.689 4.40172 19.4507 3.39391 20.2183C2.76695 20.6929 2.14 21.1733 1.51305 21.6538C1.02672 20.7515 0.710312 19.7964 0.4525 18.812C-0.0396878 16.9077 -0.11586 14.9741 0.153672 13.0347C0.364609 11.5112 0.804062 10.0464 1.51305 8.67529C2.39195 9.34912 3.265 10.0288 4.14391 10.7026C4.89977 11.2827 5.65562 11.8569 6.41148 12.4312C6.28258 13.0581 6.10094 13.6733 6.04234 14.3179C5.93687 15.4897 6.0482 16.6323 6.38219 17.7573C6.40562 17.8042 6.41148 17.8628 6.41734 17.9214Z" fill="#FABB06"/>
</g>
</svg>
