<svg width="30" height="30" viewBox="0 0 30 30" fill="none" xmlns="http://www.w3.org/2000/svg">
<path fill-rule="evenodd" clip-rule="evenodd" d="M4 2C2.89543 2 2 2.89543 2 4C2 5.10457 2.89543 6 4 6H25C26.1046 6 27 5.10457 27 4C27 2.89543 26.1046 2 25 2H4ZM2 14C2 12.8954 2.89543 12 4 12H25C26.1046 12 27 12.8954 27 14C27 15.1046 26.1046 16 25 16H4C2.89543 16 2 15.1046 2 14ZM2 25C2 23.8954 2.89543 23 4 23H25C26.1046 23 27 23.8954 27 25C27 26.1046 26.1046 27 25 27H4C2.89543 27 2 26.1046 2 25Z" fill="white"/>
</svg>
