<svg width="30" height="30" viewBox="0 0 30 30" fill="none" xmlns="http://www.w3.org/2000/svg">
<path fill-rule="evenodd" clip-rule="evenodd" d="M14.4985 2.00977C12.9571 2.00977 11.7836 2.33095 10.9032 2.86729C10.0179 3.40657 9.48009 4.13242 9.16368 4.85138C8.85116 5.56151 8.75618 6.25949 8.73598 6.76948C8.73561 6.77878 8.73527 6.78802 8.73495 6.79721H2.75098C2.33676 6.79721 2.00098 7.133 2.00098 7.54721C2.00098 7.96142 2.33676 8.29721 2.75098 8.29721H9.50235C9.5106 8.29735 9.51888 8.29735 9.52718 8.29721H19.4712C19.4795 8.29735 19.4878 8.29735 19.496 8.29721H26.249C26.6632 8.29721 26.999 7.96142 26.999 7.54721C26.999 7.133 26.6632 6.79721 26.249 6.79721H20.2634C20.2631 6.78801 20.2628 6.77876 20.2624 6.76945C20.2422 6.25944 20.1471 5.56144 19.8345 4.8513C19.518 4.13232 18.98 3.4065 18.0946 2.86725C17.2139 2.33094 16.0403 2.00977 14.4985 2.00977ZM18.7622 6.79721C18.7442 6.41429 18.6701 5.92923 18.4617 5.45567C18.2513 4.97779 17.9028 4.50675 17.3143 4.14836C16.721 3.78702 15.8334 3.50977 14.4985 3.50977C13.164 3.50977 12.2766 3.78701 11.6836 4.14831C11.0953 4.50668 10.7469 4.97769 10.5366 5.45559C10.3282 5.92918 10.2542 6.41427 10.2362 6.79721H18.7622ZM4.90149 10.7056C5.3157 10.7056 5.65149 11.0414 5.65149 11.4556C5.65149 12.736 5.62465 13.9279 5.59993 15.0262L5.59972 15.0356C5.57485 16.1402 5.55237 17.1442 5.56016 18.0632C5.5759 19.9182 5.71709 21.3264 6.15168 22.3984C6.56563 23.4196 7.2599 24.1695 8.50823 24.6864C9.79984 25.2212 11.6936 25.5087 14.4847 25.5087C17.2754 25.5087 19.1713 25.2213 20.4663 24.6862C21.7185 24.1688 22.417 23.418 22.8347 22.3964C23.273 21.3244 23.4182 19.9163 23.4371 18.0619C23.4465 17.1432 23.4254 16.1392 23.4014 15.035L23.4001 14.9712V14.9711V14.971C23.3766 13.8881 23.3512 12.7145 23.3512 11.4556C23.3512 11.0414 23.687 10.7056 24.1012 10.7056C24.5154 10.7056 24.8512 11.0414 24.8512 11.4556C24.8512 12.6982 24.8763 13.8579 24.8998 14.9438L24.9011 15.0025C24.9249 16.1016 24.9467 17.1302 24.937 18.0772C24.9179 19.9541 24.7769 21.6096 24.2231 22.9641C23.6487 24.3689 22.6491 25.4073 21.0391 26.0725C19.4721 26.72 17.342 27.0087 14.4847 27.0087C11.6272 27.0087 9.49871 26.7201 7.93435 26.0723C6.32671 25.4066 5.33125 24.3673 4.76156 22.962C4.2125 21.6076 4.07613 19.9522 4.06022 18.0759C4.05219 17.1297 4.07534 16.1016 4.10006 15.0034V15.0034L4.10006 15.0033L4.1001 15.0018L4.10017 14.9985C4.12497 13.8969 4.15149 12.7191 4.15149 11.4556C4.15149 11.0414 4.48728 10.7056 4.90149 10.7056Z" fill="#B0B0B0"/>
</svg>
