<svg width="30" height="30" viewBox="0 0 30 30" fill="none" xmlns="http://www.w3.org/2000/svg">
<path d="M12.2098 22.2262C14.427 22.2262 16.4716 21.516 18.1445 20.3325L24.4376 26.566C24.7297 26.8553 25.1147 27 25.5263 27C26.3893 27 27 26.3425 27 25.5008C27 25.1063 26.8672 24.7249 26.5751 24.4487L20.3218 18.2415C21.6362 16.5318 22.4195 14.4145 22.4195 12.1131C22.4195 6.55024 17.8258 2 12.2098 2C6.60701 2 2 6.53709 2 12.1131C2 17.676 6.59373 22.2262 12.2098 22.2262ZM12.2098 20.0431C7.82847 20.0431 4.20393 16.4529 4.20393 12.1131C4.20393 7.77328 7.82847 4.18306 12.2098 4.18306C16.5911 4.18306 20.2156 7.77328 20.2156 12.1131C20.2156 16.4529 16.5911 20.0431 12.2098 20.0431Z" fill="white"/>
</svg>
