<svg width="30" height="30" viewBox="0 0 30 30" fill="none" xmlns="http://www.w3.org/2000/svg">
<path fill-rule="evenodd" clip-rule="evenodd" d="M9.19023 9.01706C9.39339 6.8 9.89201 5.52917 10.9435 4.74538C12.0477 3.92233 13.93 3.5 17.2823 3.5C21.765 3.5 23.5989 4.25398 24.488 5.70987C24.9591 6.48139 25.2255 7.53823 25.3619 9.01373C25.4982 10.4864 25.4989 12.2835 25.4989 14.4994C25.4989 16.7154 25.4982 18.5125 25.3619 19.9852C25.2255 21.4607 24.9591 22.5175 24.488 23.289C23.5989 24.7449 21.765 25.4989 17.2823 25.4989C13.93 25.4989 12.0477 25.0766 10.9435 24.2535C9.89201 23.4697 9.39339 22.1989 9.19023 19.9818C9.15243 19.5693 8.78741 19.2656 8.37492 19.3034C7.96243 19.3412 7.65869 19.7062 7.69649 20.1187C7.91002 22.449 8.46577 24.2775 10.047 25.4562C11.5756 26.5956 13.9044 26.9989 17.2823 26.9989C21.7662 26.9989 24.4155 26.2858 25.7681 24.0708C26.4178 23.0068 26.7118 21.6773 26.8556 20.1233C26.9989 18.574 26.9989 16.7092 26.9989 14.5312V14.4994V14.4677C26.9989 12.2896 26.9989 10.4249 26.8556 8.87558C26.7118 7.32163 26.4178 5.99206 25.7681 4.92813C24.4155 2.71311 21.7662 2 17.2823 2C13.9044 2 11.5756 2.40331 10.047 3.54273C8.46577 4.72142 7.91002 6.5499 7.69649 8.88019C7.65869 9.29267 7.96243 9.6577 8.37492 9.6955C8.78741 9.73329 9.15243 9.42955 9.19023 9.01706ZM13.7289 10.4181C14.0221 10.1255 14.497 10.1259 14.7896 10.4191L18.4868 14.123C18.7791 14.4158 18.7791 14.89 18.4868 15.1827L14.7896 18.8867C14.497 19.1798 14.0221 19.1803 13.7289 18.8876C13.4358 18.595 13.4354 18.1201 13.728 17.827L16.1477 15.4029H2.75C2.33579 15.4029 2 15.0671 2 14.6529C2 14.2387 2.33579 13.9029 2.75 13.9029H16.1477L13.728 11.4788C13.4354 11.1856 13.4358 10.7108 13.7289 10.4181Z" fill="white"/>
</svg>
